<svg width="25" height="25" viewBox="0 0 25 25" fill="none" xmlns="http://www.w3.org/2000/svg">
<path fill-rule="evenodd" clip-rule="evenodd" d="M11.5 3.5C11.5 2.94772 11.9477 2.5 12.5 2.5C18.0228 2.5 22.5 6.97715 22.5 12.5C22.5 18.0228 18.0228 22.5 12.5 22.5C6.97715 22.5 2.5 18.0228 2.5 12.5C2.5 11.9477 2.94772 11.5 3.5 11.5C4.05228 11.5 4.5 11.9477 4.5 12.5C4.5 16.9183 8.08172 20.5 12.5 20.5C16.9183 20.5 20.5 16.9183 20.5 12.5C20.5 8.08172 16.9183 4.5 12.5 4.5C11.9477 4.5 11.5 4.05228 11.5 3.5Z" fill="white"/>
<path fill-rule="evenodd" clip-rule="evenodd" d="M11.5 8.5C11.5 7.94772 11.9477 7.5 12.5 7.5C15.2614 7.5 17.5 9.73858 17.5 12.5C17.5 15.2614 15.2614 17.5 12.5 17.5C9.73858 17.5 7.5 15.2614 7.5 12.5C7.5 11.9477 7.94772 11.5 8.5 11.5C9.05228 11.5 9.5 11.9477 9.5 12.5C9.5 14.1569 10.8431 15.5 12.5 15.5C14.1569 15.5 15.5 14.1569 15.5 12.5C15.5 10.8431 14.1569 9.5 12.5 9.5C11.9477 9.5 11.5 9.05228 11.5 8.5Z" fill="white"/>
</svg>
