<svg width="57" height="57" viewBox="0 0 57 57" fill="none" xmlns="http://www.w3.org/2000/svg">
<path d="M18.0002 9.9335L24.6668 13.6668L20.9335 7.00016L24.6668 0.333496L18.0002 4.06683L11.3335 0.333496L15.0668 7.00016L11.3335 13.6668L18.0002 9.9335ZM50.0002 36.0668L43.3335 32.3335L47.0668 39.0002L43.3335 45.6668L50.0002 41.9335L56.6668 45.6668L52.9335 39.0002L56.6668 32.3335L50.0002 36.0668ZM56.6668 0.333496L50.0002 4.06683L43.3335 0.333496L47.0668 7.00016L43.3335 13.6668L50.0002 9.9335L56.6668 13.6668L52.9335 7.00016L56.6668 0.333496ZM36.3202 14.4402C35.2802 13.4002 33.6002 13.4002 32.5602 14.4402L1.44016 45.5602C0.400156 46.6002 0.400156 48.2802 1.44016 49.3202L7.68016 55.5602C8.72016 56.6002 10.4002 56.6002 11.4402 55.5602L42.5335 24.4668C43.5735 23.4268 43.5735 21.7468 42.5335 20.7068L36.3202 14.4402ZM33.5735 29.0802L27.9202 23.4268L34.4268 16.9202L40.0802 22.5735L33.5735 29.0802Z" fill="#FFD600"/>
</svg>
