<svg width="24" height="24" viewBox="0 0 24 24" fill="none" xmlns="http://www.w3.org/2000/svg">
<g clip-path="url(#clip0_3017_24885)">
<path fill-rule="evenodd" clip-rule="evenodd" d="M10.5 18C7.98667 13.0067 5.48667 8.00667 3 3H9C9 3 13.45 11.9 13.48 12L10.48 17.94L10.5 18ZM16.4801 18V3.07001C16.4754 3.05028 16.4754 3.02974 16.4801 3.01001H16.5301H23.7501C23.1446 3.0549 22.5696 3.2933 22.1101 3.69001C21.6257 4.08358 21.2761 4.61841 21.1101 5.22001C21.0393 5.47404 21.0023 5.73631 21.0001 6.00001V15C20.9981 15.3685 21.0624 15.7343 21.1901 16.08C21.3662 16.5394 21.6526 16.9484 22.024 17.271C22.3955 17.5936 22.8406 17.8199 23.3201 17.93C23.3851 17.93 23.4501 17.9447 23.5168 17.9597C23.5731 17.9725 23.6305 17.9854 23.6901 17.99L24.0001 18H16.4801ZM5.7 18H6L5.69 17.91C5.50419 17.8921 5.32021 17.8587 5.14 17.81C4.5384 17.6439 4.00357 17.2944 3.61 16.81C3.23191 16.3337 3.01794 15.7479 3 15.14V15C2.99253 15.0464 2.99253 15.0936 3 15.14C2.99694 15.3472 2.96324 15.5527 2.9 15.75C2.79528 16.1827 2.59558 16.5866 2.31538 16.9326C2.03518 17.2785 1.6815 17.5577 1.28 17.75C1.02061 17.8736 0.744242 17.9579 0.46 18H0.31C0.452421 18.0267 0.592771 18.0635 0.73 18.11C1.35907 18.2673 1.92025 18.6241 2.32948 19.1271C2.73872 19.6301 2.97397 20.2521 3 20.9V21C3.0072 20.927 3.02753 20.8558 3.06 20.79C3.06297 20.6145 3.08647 20.44 3.13 20.27C3.25116 19.7703 3.49874 19.3101 3.84897 18.9336C4.1992 18.5571 4.64032 18.2769 5.13 18.12C5.31495 18.0589 5.50613 18.0187 5.7 18ZM0.03 17.9932C0.019623 17.9932 0.00937573 17.9956 0 18H0.06C0.0506243 17.9956 0.040377 17.9932 0.03 17.9932Z" fill="#FF0D64"/>
</g>
<defs>
<clipPath id="clip0_3017_24885">
<rect width="24" height="24" fill="white"/>
</clipPath>
</defs>
</svg>
