<svg width="14" height="14" viewBox="0 0 14 14" fill="none" xmlns="http://www.w3.org/2000/svg">
<path d="M7.00065 0.333496C3.32065 0.333496 0.333984 3.32016 0.333984 7.00016C0.333984 10.6802 3.32065 13.6668 7.00065 13.6668C10.6807 13.6668 13.6673 10.6802 13.6673 7.00016C13.6673 3.32016 10.6807 0.333496 7.00065 0.333496ZM7.00065 2.3335C8.10732 2.3335 9.00065 3.22683 9.00065 4.3335C9.00065 5.44016 8.10732 6.3335 7.00065 6.3335C5.89398 6.3335 5.00065 5.44016 5.00065 4.3335C5.00065 3.22683 5.89398 2.3335 7.00065 2.3335ZM7.00065 11.8002C5.33398 11.8002 3.86065 10.9468 3.00065 9.6535C3.02065 8.32683 5.66732 7.60016 7.00065 7.60016C8.32732 7.60016 10.9807 8.32683 11.0007 9.6535C10.1407 10.9468 8.66732 11.8002 7.00065 11.8002Z" fill="#BA9C00"/>
</svg>
